<?xml version="1.0" standalone="no"?>
<!DOCTYPE svg PUBLIC "-//W3C//DTD SVG 20010904//EN"
 "http://www.w3.org/TR/2001/REC-SVG-20010904/DTD/svg10.dtd">
<svg version="1.0" xmlns="http://www.w3.org/2000/svg"
 width="215.000000pt" height="48.000000pt" viewBox="0 0 220.000000 49.000000"
 preserveAspectRatio="xMidYMid meet">
<g id="Bg">
	<rect style="fill:#FFFFFFFF;" width="1122" height="1122"/>
</g>
<g transform="translate(0.000000,49.000000) scale(0.100000,-0.100000)"
fill="#000000" stroke="none">
<path d="M0 245 l0 -245 1100 0 1100 0 0 245 0 245 -1100 0 -1100 0 0 -245z
m2119 160 c17 -20 31 -39 31 -43 0 -5 -18 -26 -40 -47 -33 -33 -44 -38 -58
-28 -9 6 -16 18 -14 27 3 14 -64 16 -755 18 l-758 3 0 25 0 25 758 3 c597 2
758 5 756 15 -6 50 36 51 80 2z m-1915 -131 c9 -3 16 -15 16 -25 0 -18 21 -19
749 -19 650 0 750 -2 761 -15 7 -8 10 -22 6 -30 -5 -13 -96 -15 -761 -15 -744
0 -755 0 -755 -20 0 -10 -8 -24 -18 -29 -15 -8 -26 -3 -55 27 -21 21 -37 44
-37 52 0 14 58 80 71 80 4 0 14 -3 23 -6z"/>
</g>
</svg>
