<?xml version="1.0" standalone="no"?>
<!DOCTYPE svg PUBLIC "-//W3C//DTD SVG 20010904//EN"
 "http://www.w3.org/TR/2001/REC-SVG-20010904/DTD/svg10.dtd">
<svg version="1.0" xmlns="http://www.w3.org/2000/svg"
 width="259.000000pt" height="109.000000pt" viewBox="0 0 259.000000 109.000000"
 preserveAspectRatio="xMidYMid meet">
<g id="Bg">
	<rect style="fill:#FFFFFF;" width="1122" height="1122"/>
</g>
<g transform="translate(0.000000,109.000000) scale(0.100000,-0.100000)"
fill="#000000" stroke="none">
<path d="M0 545 l0 -545 1295 0 1295 0 0 545 0 545 -1295 0 -1295 0 0 -545z
m2191 412 c130 -38 241 -149 280 -280 73 -239 -78 -489 -321 -535 -36 -7 -350
-9 -885 -8 -752 3 -834 4 -875 20 -199 75 -318 273 -282 468 33 177 176 321
343 345 29 5 419 8 868 7 724 -1 822 -3 872 -17z"/>
<path d="M427 949 c-110 -26 -210 -108 -264 -215 -94 -191 -33 -409 147 -524
51 -32 138 -60 187 -60 45 0 42 11 -13 39 -57 31 -141 121 -170 186 -90 196
-18 432 165 540 28 17 51 33 51 38 0 9 -55 7 -103 -4z"/>
<path d="M674 949 c12 -8 25 -8 40 -1 18 9 16 11 -19 11 -33 0 -37 -1 -21 -10z"/>
<path d="M844 949 c12 -8 25 -8 40 -1 18 9 16 11 -19 11 -33 0 -37 -1 -21 -10z"/>
<path d="M1018 948 c8 -8 17 -8 34 0 22 10 21 11 -11 11 -27 1 -32 -2 -23 -11z"/>
<path d="M1198 948 c17 -8 26 -8 34 0 9 9 4 12 -22 11 -33 0 -34 -1 -12 -11z"/>
<path d="M1368 948 c17 -8 26 -8 34 0 9 9 4 12 -22 11 -33 0 -34 -1 -12 -11z"/>
<path d="M1534 949 c12 -8 25 -8 40 -1 18 9 16 11 -19 11 -33 0 -37 -1 -21
-10z"/>
<path d="M1708 948 c8 -8 17 -8 34 0 22 10 21 11 -11 11 -27 1 -32 -2 -23 -11z"/>
<path d="M1878 948 c8 -8 17 -8 34 0 22 10 21 11 -11 11 -27 1 -32 -2 -23 -11z"/>
<path d="M2070 951 c0 -5 19 -20 43 -34 63 -37 134 -118 169 -193 42 -91 49
-202 18 -293 -38 -112 -107 -198 -197 -245 -95 -49 40 -45 143 4 116 56 201
170 224 302 35 202 -107 410 -312 458 -54 12 -88 13 -88 1z"/>
<path d="M549 931 c-105 -42 -174 -109 -228 -221 -23 -48 -26 -68 -26 -155 0
-92 3 -106 32 -167 42 -90 100 -150 186 -193 71 -36 110 -43 137 -24 13 8 11
12 -10 27 -84 58 -135 124 -170 219 -19 52 -22 77 -18 155 3 78 9 104 35 159
30 65 89 135 148 176 16 12 27 24 24 27 -15 15 -68 14 -110 -3z"/>
<path d="M748 943 c-25 -6 -22 -18 8 -38 23 -15 27 -15 50 0 30 19 31 31 2 39
-25 6 -34 6 -60 -1z"/>
<path d="M916 937 c-17 -12 -17 -14 9 -31 24 -16 28 -16 51 -1 30 19 31 31 2
39 -33 8 -42 7 -62 -7z"/>
<path d="M1085 936 c-18 -13 -17 -14 11 -29 26 -13 32 -13 58 0 28 15 29 16
11 29 -24 18 -56 18 -80 0z"/>
<path d="M1268 943 c-25 -6 -22 -20 6 -38 23 -15 27 -15 51 1 26 17 26 19 9
31 -18 13 -34 15 -66 6z"/>
<path d="M1438 943 c-25 -6 -22 -18 7 -37 23 -15 27 -15 50 0 31 20 32 30 3
38 -25 6 -34 6 -60 -1z"/>
<path d="M1608 943 c-25 -6 -22 -18 8 -38 23 -15 27 -15 50 0 30 19 31 31 2
39 -25 6 -34 6 -60 -1z"/>
<path d="M1778 943 c-25 -6 -22 -18 8 -38 23 -15 27 -15 50 0 30 19 31 31 2
39 -25 6 -34 6 -60 -1z"/>
<path d="M1946 937 c-17 -13 -16 -15 16 -35 53 -33 117 -107 144 -167 81 -175
42 -362 -102 -494 -36 -33 -63 -65 -59 -70 11 -20 66 -11 129 19 77 36 157
118 194 197 24 52 27 69 27 168 0 97 -3 116 -26 165 -39 83 -108 153 -191 195
-76 38 -104 42 -132 22z"/>
<path d="M635 885 c-211 -149 -232 -443 -44 -626 64 -62 97 -76 138 -55 17 9
31 19 31 21 0 3 -19 29 -43 58 -23 29 -54 77 -67 107 -22 48 -25 69 -25 165 1
96 4 117 26 165 15 30 45 79 68 108 24 30 41 55 39 56 -26 20 -55 36 -63 36
-7 0 -33 -16 -60 -35z"/>
<path d="M836 905 c-10 -8 -24 -16 -30 -18 -12 -4 43 -75 60 -76 12 -1 64 51
64 65 0 10 -52 44 -67 44 -4 0 -17 -7 -27 -15z"/>
<path d="M1001 899 l-34 -21 36 -36 37 -36 30 29 c38 36 38 50 0 70 -36 18
-28 19 -69 -6z"/>
<path d="M1171 899 l-34 -21 36 -36 37 -37 37 37 36 36 -34 21 c-19 12 -36 21
-39 21 -3 0 -20 -9 -39 -21z"/>
<path d="M1348 904 c-16 -8 -28 -20 -28 -26 0 -15 51 -68 64 -67 6 0 23 15 39
34 l27 33 -26 21 c-31 25 -40 25 -76 5z"/>
<path d="M1520 903 c-14 -9 -27 -18 -29 -19 -7 -6 52 -74 64 -74 12 0 71 68
64 74 -26 19 -56 36 -64 36 -6 0 -22 -8 -35 -17z"/>
<path d="M1696 905 c-10 -8 -24 -16 -30 -18 -12 -4 43 -75 60 -76 12 -1 64 51
64 65 0 10 -52 44 -67 44 -4 0 -17 -7 -27 -15z"/>
<path d="M1862 900 l-33 -20 40 -47 c140 -159 141 -405 2 -556 l-42 -45 27
-21 c32 -25 36 -25 75 -5 116 59 199 206 199 349 0 144 -86 291 -207 354 -27
14 -22 15 -61 -9z"/>
<path d="M737 820 c-109 -120 -134 -298 -61 -443 32 -64 84 -127 105 -127 23
0 72 59 65 79 -3 9 -17 48 -30 86 -38 106 -33 220 14 318 11 22 20 45 20 50 0
15 -52 77 -65 77 -7 0 -29 -18 -48 -40z"/>
<path d="M910 825 l-33 -34 29 -63 c26 -57 29 -73 29 -173 0 -100 -3 -116 -29
-173 l-29 -63 33 -34 c19 -19 39 -35 46 -35 7 0 26 16 43 35 l31 36 -25 49
c-56 110 -56 245 -2 364 l25 54 -30 36 c-16 20 -35 36 -42 36 -7 0 -27 -16
-46 -35z"/>
<path d="M1081 824 c-18 -20 -30 -39 -29 -42 77 -146 84 -275 22 -411 l-25
-55 38 -38 38 -39 37 40 37 40 -25 55 c-52 115 -52 258 2 364 13 26 24 48 24
49 0 10 -65 73 -75 73 -7 0 -27 -16 -44 -36z"/>
<path d="M1252 824 l-30 -36 25 -54 c54 -119 54 -254 -2 -364 l-25 -49 31 -36
c17 -19 36 -35 43 -35 7 0 27 15 45 34 l33 34 -26 56 c-51 107 -51 244 1 358
l26 59 -33 34 c-19 19 -39 35 -46 35 -7 0 -26 -16 -42 -36z"/>
<path d="M1429 828 c-16 -18 -29 -38 -29 -44 0 -6 12 -38 27 -70 25 -52 28
-71 28 -159 -1 -86 -4 -109 -28 -167 -29 -70 -29 -77 6 -116 29 -31 50 -28 82
14 l27 35 -28 62 c-26 56 -29 72 -29 172 0 100 3 116 29 173 l29 63 -33 34
c-19 19 -38 35 -43 35 -4 0 -21 -15 -38 -32z"/>
<path d="M1601 826 l-33 -34 28 -69 c19 -48 29 -92 32 -149 5 -84 -3 -122 -40
-206 l-21 -47 27 -36 c15 -19 35 -35 46 -35 24 0 73 59 66 79 -3 9 -17 48 -30
86 -18 50 -25 90 -25 140 0 50 7 90 25 140 13 39 27 77 30 85 5 15 -47 80 -63
80 -5 0 -24 -15 -42 -34z"/>
<path d="M1770 825 l-33 -34 29 -63 c26 -57 29 -73 29 -173 0 -100 -3 -116
-29 -172 -28 -61 -28 -62 -10 -87 11 -13 30 -31 43 -38 22 -12 26 -10 59 27
82 94 118 232 92 355 -18 84 -101 220 -135 220 -6 0 -26 -16 -45 -35z"/>
<path d="M837 714 c-19 -41 -22 -66 -22 -159 0 -92 4 -118 22 -157 12 -27 26
-48 32 -48 5 0 20 26 32 58 40 103 25 300 -27 342 -12 10 -18 4 -37 -36z"/>
<path d="M1017 728 c-43 -94 -49 -217 -14 -312 12 -33 27 -61 33 -63 6 -2 22
20 35 49 20 45 24 68 24 153 -1 83 -5 109 -24 153 -13 28 -27 52 -31 52 -4 0
-15 -15 -23 -32z"/>
<path d="M1179 708 c-34 -76 -34 -230 0 -305 13 -29 27 -53 32 -53 12 0 33 46
49 102 18 68 9 190 -20 256 -12 28 -26 52 -30 52 -4 0 -18 -24 -31 -52z"/>
<path d="M1349 703 c-32 -82 -32 -215 0 -295 12 -32 27 -58 32 -58 16 0 48 83
57 146 4 33 4 85 0 117 -8 62 -41 147 -57 147 -5 0 -20 -26 -32 -57z"/>
<path d="M1531 721 c-46 -89 -48 -241 -4 -328 22 -45 33 -45 55 -2 29 59 41
158 28 230 -10 56 -43 139 -55 139 -3 0 -13 -17 -24 -39z"/>
<path d="M1698 714 c-34 -75 -37 -230 -6 -303 13 -30 28 -56 35 -58 6 -2 21
22 34 54 40 104 25 300 -27 343 -12 10 -18 4 -36 -36z"/>
<path d="M832 267 c-18 -18 -32 -36 -32 -40 0 -3 14 -14 31 -23 26 -13 36 -13
60 -3 16 6 32 15 35 20 5 9 -45 79 -57 79 -3 0 -19 -15 -37 -33z"/>
<path d="M1001 266 l-32 -33 27 -22 c15 -11 33 -21 41 -21 20 0 63 30 63 44 0
12 -51 66 -61 66 -3 0 -20 -15 -38 -34z"/>
<path d="M1177 272 c-33 -35 -34 -45 -2 -66 32 -21 47 -20 79 5 l27 22 -32 33
c-18 19 -36 34 -39 34 -3 0 -18 -13 -33 -28z"/>
<path d="M1348 266 c-16 -19 -28 -37 -28 -40 0 -3 14 -13 30 -21 32 -17 52
-14 84 10 19 15 19 16 -14 50 -19 19 -36 35 -39 35 -4 0 -18 -16 -33 -34z"/>
<path d="M1517 265 c-32 -39 -30 -47 12 -64 24 -10 34 -10 60 3 17 9 31 20 31
24 -1 11 -58 72 -67 71 -5 0 -21 -16 -36 -34z"/>
<path d="M1690 265 c-33 -34 -33 -35 -14 -50 32 -24 52 -27 84 -10 16 8 30 18
30 21 0 8 -54 74 -61 74 -3 0 -20 -16 -39 -35z"/>
<path d="M750 200 c-21 -17 -23 -21 -10 -30 8 -5 26 -10 40 -10 14 0 32 5 40
10 13 9 11 13 -10 30 -14 11 -27 20 -30 20 -3 0 -16 -9 -30 -20z"/>
<path d="M927 202 c-15 -9 -27 -20 -27 -24 0 -12 48 -21 75 -14 31 8 32 19 2
39 -21 13 -26 13 -50 -1z"/>
<path d="M1098 200 c-20 -17 -21 -21 -8 -30 30 -20 90 -5 76 19 -17 27 -44 31
-68 11z"/>
<path d="M1270 199 c-21 -16 -23 -20 -10 -29 25 -16 90 -10 90 9 0 4 -12 14
-28 23 -26 15 -29 15 -52 -3z"/>
<path d="M1440 199 c-21 -16 -23 -20 -10 -29 26 -17 90 -9 90 11 0 5 -13 15
-28 23 -25 13 -30 12 -52 -5z"/>
<path d="M1610 200 c-21 -17 -23 -21 -10 -30 8 -5 26 -10 40 -10 14 0 32 5 40
10 13 9 11 13 -10 30 -14 11 -27 20 -30 20 -3 0 -16 -9 -30 -20z"/>
<path d="M1787 202 c-15 -9 -27 -20 -27 -24 0 -12 48 -21 75 -14 31 8 32 19 2
39 -21 13 -26 13 -50 -1z"/>
<path d="M675 159 c-15 -6 -11 -8 18 -8 20 -1 37 1 37 3 0 9 -37 12 -55 5z"/>
<path d="M849 159 c-10 -6 -4 -9 19 -9 17 0 32 2 32 4 0 9 -39 13 -51 5z"/>
<path d="M1020 160 c-11 -7 -6 -10 20 -10 26 0 31 3 20 10 -8 5 -17 10 -20 10
-3 0 -12 -5 -20 -10z"/>
<path d="M1190 160 c-11 -7 -6 -10 20 -10 26 0 31 3 20 10 -8 5 -17 10 -20 10
-3 0 -12 -5 -20 -10z"/>
<path d="M1360 160 c-11 -7 -6 -10 20 -10 26 0 31 3 20 10 -8 5 -17 10 -20 10
-3 0 -12 -5 -20 -10z"/>
<path d="M1535 159 c-15 -6 -11 -8 18 -8 20 -1 37 1 37 3 0 9 -37 12 -55 5z"/>
<path d="M1710 160 c-11 -7 -6 -10 20 -10 26 0 31 3 20 10 -8 5 -17 10 -20 10
-3 0 -12 -5 -20 -10z"/>
<path d="M1880 160 c-11 -7 -6 -10 20 -10 26 0 31 3 20 10 -8 5 -17 10 -20 10
-3 0 -12 -5 -20 -10z"/>
</g>
</svg>
