<?xml version="1.0" encoding="utf-8"?>
<!-- Generator: Adobe Illustrator 27.5.0, SVG Export Plug-In . SVG Version: 6.00 Build 0)  -->
<svg version="1.1" xmlns="http://www.w3.org/2000/svg" xmlns:xlink="http://www.w3.org/1999/xlink" x="0px" y="0px"
	 viewBox="0 0 1122 320" style="enable-background:new 0 0 1122 1122;" xml:space="preserve">
<g id="Bg">
	<rect style="fill:#000000;" width="1122" height="1122"/>
</g>
<g id="Object">
	<g>
		<path style="fill:none;" d="M627.089,820.779c-0.309,6.923,4.938,13.014,13.641,13.014c8.298,0,13.635-5.138,13.635-12.17
			c0-8.28-5.78-12.274-14.997-14.894C631.404,809.022,627.089,814.285,627.089,820.779z"/>
		<path style="fill:none;" d="M628.976,787.531c0,6.824,5.157,10.491,13.024,12.589c5.871-1.991,10.392-6.185,10.392-12.377
			c0-5.453-3.256-11.112-11.547-11.112C633.189,776.632,628.976,781.661,628.976,787.531z"/>
		<path style="fill:none;" d="M784.23,820.779c-0.296,6.923,4.932,13.014,13.653,13.014c8.298,0,13.63-5.138,13.63-12.17
			c0-8.28-5.774-12.274-15.003-14.894C788.545,809.022,784.23,814.285,784.23,820.779z"/>
		<path style="fill:none;" d="M786.118,787.531c0,6.824,5.156,10.491,13.024,12.589c5.883-1.991,10.373-6.185,10.373-12.377
			c0-5.453-3.238-11.112-11.535-11.112C790.343,776.632,786.118,781.661,786.118,787.531z"/>
		<path style="fill:none;" d="M456.099,787.937c0,6.972,5.332,10.718,13.472,12.861c6.088-2.033,10.767-6.321,10.767-12.655
			c0-5.574-3.371-11.365-11.965-11.365C460.439,776.777,456.099,781.933,456.099,787.937z"/>
		<path style="fill:none;" d="M294.824,821.931c-0.315,7.081,5.108,13.303,14.138,13.303c8.581,0,14.137-5.253,14.137-12.44
			c0-8.476-5.992-12.555-15.554-15.233C299.297,809.909,294.824,815.289,294.824,821.931z"/>
		<path style="fill:none;" d="M376.436,787.937c0,6.972,5.32,10.718,13.484,12.861c6.083-2.033,10.755-6.321,10.755-12.655
			c0-5.574-3.359-11.365-11.959-11.365C380.782,776.777,376.436,781.933,376.436,787.937z"/>
		<path style="fill:none;" d="M296.773,787.937c0,6.972,5.332,10.718,13.483,12.861c6.101-2.033,10.755-6.321,10.755-12.655
			c0-5.574-3.353-11.365-11.953-11.365C301.143,776.777,296.773,781.933,296.773,787.937z"/>
		<path style="fill:none;" d="M707.575,787.531c0,6.824,5.126,10.491,12.988,12.589c5.883-1.991,10.385-6.185,10.385-12.377
			c0-5.453-3.25-11.112-11.536-11.112C711.751,776.632,707.575,781.661,707.575,787.531z"/>
		<path style="fill:none;" d="M374.482,821.931c-0.327,7.081,5.114,13.303,14.125,13.303c8.6,0,14.132-5.253,14.132-12.44
			c0-8.476-5.974-12.555-15.548-15.233C378.936,809.909,374.482,815.289,374.482,821.931z"/>
		<path style="fill:none;" d="M454.145,821.931c-0.351,7.081,5.096,13.303,14.119,13.303c8.582,0,14.125-5.253,14.125-12.44
			c0-8.476-5.967-12.555-15.542-15.233C458.581,809.909,454.145,815.289,454.145,821.931z"/>
		<path style="fill:none;" d="M705.674,820.779c-0.315,6.923,4.939,13.014,13.641,13.014c8.273,0,13.617-5.138,13.617-12.17
			c0-8.28-5.737-12.274-14.985-14.894C709.983,809.022,705.674,814.285,705.674,820.779z"/>
		<rect x="130.419" y="11.897" style="fill:#FFFFFF;" width="10.944" height="300.369"/>
		<rect x="150.314" y="11.897" style="fill:#FFFFFF;" width="10.951" height="300.369"/>
		<rect x="182.579" y="11.897" style="fill:#FFFFFF;" width="25.096" height="300.369"/>
		<rect x="228.871" y="11.897" style="fill:#FFFFFF;" width="15.039" height="300.369"/>
		<rect x="255.71" y="11.897" style="fill:#FFFFFF;" width="35.051" height="300.369"/>
		<rect x="305.605" y="11.897" style="fill:#FFFFFF;" width="22.185" height="300.369"/>
		<rect x="335.239" y="11.897" style="fill:#FFFFFF;" width="10.427" height="300.369"/>
		<rect x="366.689" y="11.897" style="fill:#FFFFFF;" width="15.437" height="300.369"/>
		<rect x="398.133" y="11.897" style="fill:#FFFFFF;" width="5.39" height="300.369"/>
		<rect x="421.696" y="11.897" style="fill:#FFFFFF;" width="30.185" height="300.369"/>
		<rect x="465.418" y="11.897" style="fill:#FFFFFF;" width="10.21" height="300.369"/>
		<rect x="492.418" y="11.897" style="fill:#FFFFFF;" width="16.21" height="300.369"/>
		<rect x="520.418" y="11.897" style="fill:#FFFFFF;" width="8.21" height="300.369"/>
		<rect x="535.418" y="11.897" style="fill:#FFFFFF;" width="20.21" height="300.369"/>
		<rect x="565.418" y="11.897" style="fill:#FFFFFF;" width="30.21" height="300.369"/>
		<rect x="610.418" y="11.897" style="fill:#FFFFFF;" width="20.21" height="300.369"/>
		<rect x="652.418" y="11.897" style="fill:#FFFFFF;" width="29.21" height="300.369"/>
		<rect x="696.418" y="11.897" style="fill:#FFFFFF;" width="5.21" height="300.369"/>
		<rect x="710.418" y="11.897" style="fill:#FFFFFF;" width="16.21" height="300.369"/>
		<rect x="740.418" y="11.897" style="fill:#FFFFFF;" width="12.21" height="300.369"/>
		<rect x="770.418" y="11.897" style="fill:#FFFFFF;" width="36.21" height="300.369"/>
		<rect x="812.418" y="11.897" style="fill:#FFFFFF;" width="18.21" height="300.369"/>
		<rect x="836.418" y="11.897" style="fill:#FFFFFF;" width="11.21" height="300.369"/>
		<rect x="865.418" y="11.897" style="fill:#FFFFFF;" width="13.21" height="300.369"/>
		<rect x="890.418" y="11.897" style="fill:#FFFFFF;" width="20.21" height="300.369"/>
		<rect x="913.418" y="11.897" style="fill:#FFFFFF;" width="16.21" height="300.369"/>
		<rect x="941.418" y="11.897" style="fill:#FFFFFF;" width="8.21" height="300.369"/>
		<rect x="956.418" y="11.897" style="fill:#FFFFFF;" width="20.21" height="300.369"/>
		<rect x="985.748" y="11.897" style="fill:#FFFFFF;" width="17.914" height="300.369"/>
		<rect x="1010.636" y="11.897" style="fill:#FFFFFF;" width="17.944" height="300.369"/>
	</g>
</g>
</svg>
