<?xml version="1.0" standalone="no"?>
<!DOCTYPE svg PUBLIC "-//W3C//DTD SVG 20010904//EN"
 "http://www.w3.org/TR/2001/REC-SVG-20010904/DTD/svg10.dtd">
<svg version="1.0" xmlns="http://www.w3.org/2000/svg"
 width="122.000000pt" height="119.000000pt" viewBox="0 0 122.000000 119.000000"
 preserveAspectRatio="xMidYMid meet">
<g id="Bg">
	<rect style="fill:#FFFFFFFF;" width="1122" height="1122"/>
</g>
<g transform="translate(0.000000,119.000000) scale(0.100000,-0.100000)"
fill="#000000" stroke="none">
<path d="M0 595 l0 -595 610 0 610 0 0 595 0 595 -610 0 -610 0 0 -595z m684
514 c23 -18 86 -125 86 -145 0 -3 -31 -3 -70 1 l-70 7 0 -85 0 -86 -91 -3 -91
-3 6 44 c3 24 11 61 16 82 l10 37 75 7 75 7 0 79 c0 87 7 95 54 58z m99 -2
c162 -52 281 -169 337 -332 26 -74 25 -102 -1 -50 -25 50 -98 125 -150 154
-21 12 -39 21 -39 19 0 -2 9 -32 20 -67 11 -35 19 -66 17 -68 -2 -2 -30 3 -63
12 -91 24 -98 22 -90 -22 3 -21 6 -62 6 -90 l0 -53 81 0 81 0 -4 71 -4 70 26
-6 c33 -8 101 -48 121 -71 9 -11 20 -29 23 -41 7 -23 6 -23 -77 -23 l-85 0 -4
-69 c-2 -39 -6 -72 -9 -75 -3 -3 -38 -12 -79 -21 -41 -9 -76 -17 -78 -19 -2
-2 -10 -37 -19 -78 -8 -40 -20 -76 -26 -80 -7 -4 -26 -8 -43 -8 -17 0 -46 -3
-63 -6 l-31 -7 0 -78 c0 -63 -3 -79 -15 -79 -27 0 -85 62 -111 119 -26 56 -28
57 -93 78 -36 11 -68 19 -70 17 -6 -6 57 -98 86 -126 15 -15 48 -38 73 -52 54
-31 35 -33 -46 -6 -155 53 -280 187 -328 349 -21 72 -20 86 3 35 25 -55 71
-106 136 -148 29 -20 56 -36 58 -36 3 0 -3 23 -14 50 -20 52 -25 90 -11 90 4
-1 34 -7 67 -15 33 -8 63 -15 68 -15 9 0 9 56 1 128 l-7 52 -80 0 -80 0 6 -70
c4 -43 2 -70 -4 -70 -42 0 -159 90 -159 122 0 16 10 18 80 18 l80 0 0 38 c0
20 3 53 6 74 6 35 8 37 70 52 103 26 98 30 90 -74 l-7 -90 100 0 100 0 3 97 3
96 86 -2 87 -2 -8 38 c-4 21 -11 55 -15 76 -9 44 0 47 75 18 34 -13 50 -15 50
-7 0 36 -110 151 -175 182 -64 30 -46 30 48 1z m-294 -16 c-55 -35 -100 -83
-132 -138 -15 -28 -45 -57 -83 -81 -70 -46 -103 -81 -138 -142 -29 -51 -32
-46 -12 21 49 160 158 281 312 344 83 34 109 32 53 -4z m636 -633 c-44 -137
-143 -252 -267 -312 -40 -19 -91 -38 -113 -41 l-40 -6 32 15 c47 22 120 92
155 151 19 31 46 60 71 74 61 36 131 106 153 152 24 55 30 33 9 -33z"/>
<path d="M630 514 l0 -96 -91 4 -91 4 6 -47 c14 -107 23 -116 121 -121 l50 -3
3 81 3 82 84 4 c47 2 87 7 90 9 2 3 8 44 11 92 l7 87 -97 0 -96 0 0 -96z"/>
</g>
</svg>
